<svg width="72" height="72" viewBox="0 0 72 72" fill="none" xmlns="http://www.w3.org/2000/svg">
<path fill-rule="evenodd" clip-rule="evenodd" d="M2.80741e-08 35.618C2.80741e-08 59.364 11.8727 71.237 35.618 71.237H57.711C66.7283 71.237 71.237 66.7283 71.237 57.711V35.618C71.237 11.8733 59.364 0.000666695 35.618 2.80741e-08C11.872 -0.000666639 -0.000666639 11.872 2.80741e-08 35.618Z" fill="url(#paint0_linear)"/>
<path fill-rule="evenodd" clip-rule="evenodd" d="M24.255 46.733C22.8194 45.2643 21.6803 43.5327 20.9 41.633C20.1053 39.6556 19.7079 37.5409 19.7305 35.4099C19.7532 33.2788 20.1954 31.1731 21.032 29.213C22.6821 25.4086 25.7546 22.4004 29.593 20.831C31.5599 20.0365 33.6645 19.6392 35.7857 19.6618C37.9068 19.6845 40.0025 20.1267 41.952 20.963C45.7566 22.6128 48.765 25.6854 50.334 29.524C51.129 31.501 51.5266 33.6154 51.5039 35.7462C51.4813 37.8769 51.0389 39.9823 50.202 41.942C49.3834 43.8259 48.2085 45.5339 46.742 46.972L43.863 49.803L38.78 44.654L41.68 41.797H41.675C42.5035 41.008 43.1616 40.0577 43.6087 39.0046C44.0559 37.9516 44.2826 36.8181 44.275 35.674C44.2921 34.5324 44.0828 33.3988 43.6592 32.3385C43.2356 31.2783 42.606 30.3125 41.807 29.497C40.2002 27.8589 38.009 26.9253 35.7145 26.9013C33.4199 26.8773 31.2097 27.7648 29.569 29.369C28.7416 30.1662 28.085 31.1232 27.639 32.182C27.2042 33.2313 26.9773 34.3552 26.971 35.491C26.931 36.6356 27.1298 37.7759 27.5547 38.8394C27.9796 39.9028 28.6213 40.8662 29.439 41.668L24.255 46.733Z" fill="white"/>
<path fill-rule="evenodd" clip-rule="evenodd" d="M56.421 55.9731C55.564 56.8252 54.4046 57.3035 53.196 57.3035C51.9875 57.3035 50.828 56.8252 49.971 55.9731L47.971 53.9731C47.6467 53.6477 47.4646 53.207 47.4646 52.7476C47.4646 52.2882 47.6467 51.8475 47.971 51.5221L49.971 49.5221C50.8287 48.6761 51.9861 48.2038 53.1908 48.208C54.3955 48.2123 55.5496 48.6929 56.4012 49.5449C57.2528 50.397 57.7329 51.5513 57.7366 52.7559C57.7403 53.9606 57.2674 55.1178 56.421 55.9751V55.9731Z" fill="white"/>
<defs>
<linearGradient id="paint0_linear" x1="35.6185" y1="0" x2="35.6185" y2="71.237" gradientUnits="userSpaceOnUse">
<stop stop-color="#D66840"/>
<stop offset="1" stop-color="#FF9300"/>
</linearGradient>
</defs>
</svg>
